# xmcd
#
# Track frame offsets: 
#        150
#        14891
#        30959
#        70371
#        83841
#        98074
#        113069
#        127879
#        141881
#        153691
#        168039
#        182514
#        196189
#        211524
#        225954
#        237624
#        253401
#        265766
#
# Disc length: 3727 seconds
#
# Revision: 1
# Processed by: cddbd v1.5.2PL0 Copyright (c) Steve Scherf et al.
# Submitted via: ExactAudioCopy v0.95b4
#
DISCID=ea0e8d12
DTITLE=Benny Goodman - The Essential Benny Goodman - CD 2
DYEAR=2003
DGENRE=Jazz
TTITLE0=Smoke Dreams
TTITLE1=Christopher Columbus
TTITLE2=Sing, Sing, Sing
TTITLE3=Topsy
TTITLE4=King Porter Stomp
TTITLE5=Perfidia
TTITLE6=Flying Home
TTITLE7=Taking a Chance on Love
TTITLE8=Mission To Moscow
TTITLE9=Thanks For the Memory
TTITLE10=Roll 'Em
TTITLE11=What's New
TTITLE12=Goodbye
TTITLE13=Why Don't You Do Right
TTITLE14=Lazy River
TTITLE15=Peckin'
TTITLE16=These Foolish Things Remind Me Of You
TTITLE17=Amapola
EXTD=
EXTT0=
EXTT1=
EXTT2=
EXTT3=
EXTT4=
EXTT5=
EXTT6=
EXTT7=
EXTT8=
EXTT9=
EXTT10=
EXTT11=
EXTT12=
EXTT13=
EXTT14=
EXTT15=
EXTT16=
EXTT17=
PLAYORDER=
